<svg width="21" height="20" viewBox="0 0 21 20" fill="none" xmlns="http://www.w3.org/2000/svg">
<path d="M10.0585 17.109C8.11688 17.1089 6.17522 16.8005 4.33358 16.1838C3.63359 15.9421 3.10028 15.4504 2.86697 14.8087C2.62534 14.167 2.7087 13.4587 3.09206 12.8254L4.05046 11.2338C4.25048 10.9004 4.43384 10.2338 4.43386 9.84212L4.43396 7.43379C4.43409 4.33379 6.9592 1.8089 10.0592 1.80903C13.1592 1.80916 15.6841 4.33427 15.684 7.43427L15.6839 9.84261C15.6838 10.2259 15.8671 10.9009 16.0671 11.2426L17.0171 12.826C17.3754 13.426 17.442 14.151 17.2003 14.8093C16.9586 15.4677 16.4336 15.9676 15.7752 16.1843C13.9419 16.8009 12.0002 17.1091 10.0585 17.109ZM10.0591 3.05903C7.65081 3.05893 5.68406 5.01718 5.68396 7.43384L5.68386 9.84218C5.68383 10.4505 5.43379 11.3505 5.12543 11.8755L4.16703 13.4671C3.98369 13.7754 3.93367 14.1004 4.04199 14.3754C4.14198 14.6588 4.39197 14.8755 4.73363 14.9921C8.21692 16.159 11.9086 16.1591 15.392 14.9926C15.692 14.8926 15.9253 14.6676 16.0337 14.3676C16.142 14.0676 16.117 13.7426 15.9504 13.4676L14.9921 11.8759C14.6755 11.3342 14.4338 10.4426 14.4339 9.83422L14.434 7.43422C14.4341 5.01755 12.4758 3.05914 10.0591 3.05903Z" fill="#333333"/>
<path d="M11.6097 3.28405C11.5514 3.28404 11.493 3.27571 11.4347 3.25904C11.1931 3.19236 10.9597 3.14235 10.7347 3.10901C10.0264 3.01731 9.34306 3.06728 8.70138 3.25892C8.46804 3.33391 8.21805 3.2589 8.05972 3.08389C7.9014 2.90889 7.85141 2.65888 7.94308 2.43389C8.28479 1.5589 9.11814 0.983939 10.0681 0.98398C11.0181 0.984021 11.8515 1.55072 12.1931 2.43407C12.2764 2.65908 12.2347 2.90907 12.0764 3.08407C11.9514 3.21739 11.7764 3.28405 11.6097 3.28405Z" fill="#333333"/>
<path d="M10.0585 19.009C9.23346 19.009 8.43347 18.6756 7.85016 18.0923C7.26686 17.5089 6.93356 16.7089 6.93359 15.8839L8.18359 15.884C8.18357 16.3756 8.38355 16.859 8.73354 17.209C9.08352 17.559 9.56685 17.759 10.0585 17.759C11.0918 17.7591 11.9335 16.9175 11.9336 15.8841L13.1836 15.8842C13.1835 17.6092 11.7835 19.0091 10.0585 19.009Z" fill="#333333"/>
</svg>
